<svg viewBox="0 0 32 32" xmlns="http://www.w3.org/2000/svg"><path fill="currentColor" d="M16.01 3C8.85 3 3.02 8.7 3.02 15.73c0 2.25.61 4.44 1.77 6.36L3 29l7.1-1.8a13.3 13.3 0 0 0 5.91 1.39C23.17 28.59 29 22.88 29 15.85 29 8.7 23.17 3 16.01 3Zm0 23.25c-1.9 0-3.76-.5-5.39-1.45l-.39-.23-4.2 1.06 1.08-4.04-.26-.41a10.53 10.53 0 0 1-1.6-5.45c0-5.73 4.82-10.39 10.76-10.39 5.93 0 10.76 4.66 10.76 10.5 0 5.74-4.83 10.4-10.76 10.4Zm5.9-7.78c-.32-.16-1.9-.93-2.2-1.04-.3-.11-.52-.16-.74.16-.22.32-.85 1.04-1.04 1.25-.19.22-.38.24-.7.08-.32-.16-1.36-.49-2.6-1.56-.96-.85-1.61-1.9-1.8-2.22-.19-.32-.02-.5.14-.65.15-.15.32-.38.49-.57.16-.19.22-.32.32-.54.11-.22.05-.41-.03-.57-.08-.16-.74-1.77-1.01-2.43-.27-.64-.54-.55-.74-.56h-.63c-.22 0-.57.08-.87.41-.3.32-1.14 1.12-1.14 2.73s1.17 3.16 1.33 3.38c.16.22 2.31 3.52 5.6 4.93.78.34 1.39.54 1.86.69.78.25 1.49.22 2.05.13.63-.09 1.9-.77 2.16-1.52.27-.74.27-1.38.19-1.52-.08-.14-.3-.22-.63-.38Z"/></svg>